<svg width="98" height="28" viewBox="0 0 98 28" fill="none" xmlns="http://www.w3.org/2000/svg">
<path d="M40.483 18.892H36.029L35.315 21H32.272L36.59 9.066H39.956L44.274 21H41.197L40.483 18.892ZM39.735 16.648L38.256 12.279L36.794 16.648H39.735ZM45.0102 16.257C45.0102 15.271 45.2085 14.4097 45.6052 13.673C46.0132 12.9363 46.5742 12.3697 47.2882 11.973C48.0135 11.5763 48.8408 11.378 49.7702 11.378C50.9602 11.378 51.9518 11.6897 52.7452 12.313C53.5498 12.9363 54.0768 13.8147 54.3262 14.948H51.2322C50.9715 14.2227 50.4672 13.86 49.7192 13.86C49.1865 13.86 48.7615 14.0697 48.4442 14.489C48.1268 14.897 47.9682 15.4863 47.9682 16.257C47.9682 17.0277 48.1268 17.6227 48.4442 18.042C48.7615 18.45 49.1865 18.654 49.7192 18.654C50.4672 18.654 50.9715 18.2913 51.2322 17.566H54.3262C54.0768 18.6767 53.5498 19.5493 52.7452 20.184C51.9405 20.8187 50.9488 21.136 49.7702 21.136C48.8408 21.136 48.0135 20.9377 47.2882 20.541C46.5742 20.1443 46.0132 19.5777 45.6052 18.841C45.2085 18.1043 45.0102 17.243 45.0102 16.257ZM55.3031 16.257C55.3031 15.271 55.5015 14.4097 55.8981 13.673C56.3061 12.9363 56.8671 12.3697 57.5811 11.973C58.3065 11.5763 59.1338 11.378 60.0631 11.378C61.2531 11.378 62.2448 11.6897 63.0381 12.313C63.8428 12.9363 64.3698 13.8147 64.6191 14.948H61.5251C61.2645 14.2227 60.7601 13.86 60.0121 13.86C59.4795 13.86 59.0545 14.0697 58.7371 14.489C58.4198 14.897 58.2611 15.4863 58.2611 16.257C58.2611 17.0277 58.4198 17.6227 58.7371 18.042C59.0545 18.45 59.4795 18.654 60.0121 18.654C60.7601 18.654 61.2645 18.2913 61.5251 17.566H64.6191C64.3698 18.6767 63.8428 19.5493 63.0381 20.184C62.2335 20.8187 61.2418 21.136 60.0631 21.136C59.1338 21.136 58.3065 20.9377 57.5811 20.541C56.8671 20.1443 56.3061 19.5777 55.8981 18.841C55.5015 18.1043 55.3031 17.243 55.3031 16.257ZM70.4921 21.136C69.5628 21.136 68.7241 20.9377 67.9761 20.541C67.2395 20.1443 66.6558 19.5777 66.2251 18.841C65.8058 18.1043 65.5961 17.243 65.5961 16.257C65.5961 15.2823 65.8115 14.4267 66.2421 13.69C66.6728 12.942 67.2621 12.3697 68.0101 11.973C68.7581 11.5763 69.5968 11.378 70.5261 11.378C71.4555 11.378 72.2941 11.5763 73.0421 11.973C73.7901 12.3697 74.3795 12.942 74.8101 13.69C75.2408 14.4267 75.4561 15.2823 75.4561 16.257C75.4561 17.2317 75.2351 18.093 74.7931 18.841C74.3625 19.5777 73.7675 20.1443 73.0081 20.541C72.2601 20.9377 71.4215 21.136 70.4921 21.136ZM70.4921 18.62C71.0475 18.62 71.5178 18.416 71.9031 18.008C72.2998 17.6 72.4981 17.0163 72.4981 16.257C72.4981 15.4977 72.3055 14.914 71.9201 14.506C71.5461 14.098 71.0815 13.894 70.5261 13.894C69.9595 13.894 69.4891 14.098 69.1151 14.506C68.7411 14.9027 68.5541 15.4863 68.5541 16.257C68.5541 17.0163 68.7355 17.6 69.0981 18.008C69.4721 18.416 69.9368 18.62 70.4921 18.62ZM86.3653 11.514V21H83.4583V19.708C83.1637 20.1273 82.7613 20.4673 82.2513 20.728C81.7527 20.9773 81.1973 21.102 80.5853 21.102C79.86 21.102 79.2197 20.9433 78.6643 20.626C78.109 20.2973 77.6783 19.827 77.3723 19.215C77.0663 18.603 76.9133 17.8833 76.9133 17.056V11.514H79.8033V16.665C79.8033 17.2997 79.9677 17.7927 80.2963 18.144C80.625 18.4953 81.067 18.671 81.6223 18.671C82.189 18.671 82.6367 18.4953 82.9653 18.144C83.294 17.7927 83.4583 17.2997 83.4583 16.665V11.514H86.3653ZM94.2334 11.412C95.3441 11.412 96.2281 11.7747 96.8854 12.5C97.5541 13.214 97.8884 14.2 97.8884 15.458V21H94.9984V15.849C94.9984 15.2143 94.8341 14.7213 94.5054 14.37C94.1767 14.0187 93.7347 13.843 93.1794 13.843C92.6241 13.843 92.1821 14.0187 91.8534 14.37C91.5247 14.7213 91.3604 15.2143 91.3604 15.849V21H88.4534V11.514H91.3604V12.772C91.6551 12.3527 92.0517 12.024 92.5504 11.786C93.0491 11.5367 93.6101 11.412 94.2334 11.412ZM105.195 18.535V21H103.716C102.662 21 101.841 20.745 101.251 20.235C100.662 19.7137 100.367 18.8693 100.367 17.702V13.928H99.2115V11.514H100.367V9.202H103.274V11.514H105.178V13.928H103.274V17.736C103.274 18.0193 103.342 18.2233 103.478 18.348C103.614 18.4727 103.841 18.535 104.158 18.535H105.195Z" fill="white" style="fill:white;fill-opacity:1;"/>
<path fill-rule="evenodd" clip-rule="evenodd" d="M12 2C6.48 2 2 6.48 2 12C2 17.52 6.48 22 12 22C17.52 22 22 17.52 22 12C22 6.48 17.52 2 12 2ZM7.07 18.28C7.5 17.38 10.12 16.5 12 16.5C13.88 16.5 16.51 17.38 16.93 18.28C15.57 19.36 13.86 20 12 20C10.14 20 8.43 19.36 7.07 18.28ZM18.36 16.83C16.93 15.09 13.46 14.5 12 14.5C10.54 14.5 7.07 15.09 5.64 16.83C4.62 15.49 4 13.82 4 12C4 7.59 7.59 4 12 4C16.41 4 20 7.59 20 12C20 13.82 19.38 15.49 18.36 16.83ZM12 6C10.06 6 8.5 7.56 8.5 9.5C8.5 11.44 10.06 13 12 13C13.94 13 15.5 11.44 15.5 9.5C15.5 7.56 13.94 6 12 6ZM12 11C11.17 11 10.5 10.33 10.5 9.5C10.5 8.67 11.17 8 12 8C12.83 8 13.5 8.67 13.5 9.5C13.5 10.33 12.83 11 12 11Z" fill="white" style="fill:white;fill-opacity:1;"/>
<mask id="mask0_1_65" style="mask-type:luminance" maskUnits="userSpaceOnUse" x="2" y="2" width="20" height="20">
<path fill-rule="evenodd" clip-rule="evenodd" d="M12 2C6.48 2 2 6.48 2 12C2 17.52 6.48 22 12 22C17.52 22 22 17.52 22 12C22 6.48 17.52 2 12 2ZM7.07 18.28C7.5 17.38 10.12 16.5 12 16.5C13.88 16.5 16.51 17.38 16.93 18.28C15.57 19.36 13.86 20 12 20C10.14 20 8.43 19.36 7.07 18.28ZM18.36 16.83C16.93 15.09 13.46 14.5 12 14.5C10.54 14.5 7.07 15.09 5.64 16.83C4.62 15.49 4 13.82 4 12C4 7.59 7.59 4 12 4C16.41 4 20 7.59 20 12C20 13.82 19.38 15.49 18.36 16.83ZM12 6C10.06 6 8.5 7.56 8.5 9.5C8.5 11.44 10.06 13 12 13C13.94 13 15.5 11.44 15.5 9.5C15.5 7.56 13.94 6 12 6ZM12 11C11.17 11 10.5 10.33 10.5 9.5C10.5 8.67 11.17 8 12 8C12.83 8 13.5 8.67 13.5 9.5C13.5 10.33 12.83 11 12 11Z" fill="white" style="fill:white;fill-opacity:1;"/>
</mask>
<g mask="url(#mask0_1_65)">
</g>
</svg>
