<svg width="25" height="25" viewBox="0 0 25 25" fill="none" xmlns="http://www.w3.org/2000/svg">
<path fill-rule="evenodd" clip-rule="evenodd" d="M12.5 2.5C6.98 2.5 2.5 6.98 2.5 12.5C2.5 18.02 6.98 22.5 12.5 22.5C18.02 22.5 22.5 18.02 22.5 12.5C22.5 6.98 18.02 2.5 12.5 2.5ZM7.57 18.78C8 17.88 10.62 17 12.5 17C14.38 17 17.01 17.88 17.43 18.78C16.07 19.86 14.36 20.5 12.5 20.5C10.64 20.5 8.93 19.86 7.57 18.78ZM18.86 17.33C17.43 15.59 13.96 15 12.5 15C11.04 15 7.57 15.59 6.14 17.33C5.12 15.99 4.5 14.32 4.5 12.5C4.5 8.09 8.09 4.5 12.5 4.5C16.91 4.5 20.5 8.09 20.5 12.5C20.5 14.32 19.88 15.99 18.86 17.33ZM12.5 6.5C10.56 6.5 9 8.06 9 10C9 11.94 10.56 13.5 12.5 13.5C14.44 13.5 16 11.94 16 10C16 8.06 14.44 6.5 12.5 6.5ZM12.5 11.5C11.67 11.5 11 10.83 11 10C11 9.17 11.67 8.5 12.5 8.5C13.33 8.5 14 9.17 14 10C14 10.83 13.33 11.5 12.5 11.5Z" fill="white" style="fill:white;fill-opacity:1;"/>
<mask id="mask0_1_50" style="mask-type:luminance" maskUnits="userSpaceOnUse" x="2" y="2" width="21" height="21">
<path fill-rule="evenodd" clip-rule="evenodd" d="M12.5 2.5C6.98 2.5 2.5 6.98 2.5 12.5C2.5 18.02 6.98 22.5 12.5 22.5C18.02 22.5 22.5 18.02 22.5 12.5C22.5 6.98 18.02 2.5 12.5 2.5ZM7.57 18.78C8 17.88 10.62 17 12.5 17C14.38 17 17.01 17.88 17.43 18.78C16.07 19.86 14.36 20.5 12.5 20.5C10.64 20.5 8.93 19.86 7.57 18.78ZM18.86 17.33C17.43 15.59 13.96 15 12.5 15C11.04 15 7.57 15.59 6.14 17.33C5.12 15.99 4.5 14.32 4.5 12.5C4.5 8.09 8.09 4.5 12.5 4.5C16.91 4.5 20.5 8.09 20.5 12.5C20.5 14.32 19.88 15.99 18.86 17.33ZM12.5 6.5C10.56 6.5 9 8.06 9 10C9 11.94 10.56 13.5 12.5 13.5C14.44 13.5 16 11.94 16 10C16 8.06 14.44 6.5 12.5 6.5ZM12.5 11.5C11.67 11.5 11 10.83 11 10C11 9.17 11.67 8.5 12.5 8.5C13.33 8.5 14 9.17 14 10C14 10.83 13.33 11.5 12.5 11.5Z" fill="white" style="fill:white;fill-opacity:1;"/>
</mask>
<g mask="url(#mask0_1_50)">
</g>
</svg>
