<svg width="27" height="173" viewBox="0 0 27 173" fill="none" xmlns="http://www.w3.org/2000/svg">
<path d="M19.636 9.342L17.17 9.342L17.17 4.194L14.506 4.194L14.506 8.046L12.112 8.046L12.112 4.194L7 4.194L7 1.116L19.636 1.116L19.636 9.342ZM6.856 15.5317C6.856 14.5477 7.066 13.6597 7.486 12.8677C7.906 12.0877 8.506 11.4697 9.286 11.0137C10.066 10.5697 10.978 10.3477 12.022 10.3477C13.054 10.3477 13.96 10.5757 14.74 11.0317C15.532 11.4877 16.138 12.1117 16.558 12.9037C16.978 13.6957 17.188 14.5837 17.188 15.5677C17.188 16.5517 16.978 17.4397 16.558 18.2317C16.138 19.0237 15.532 19.6477 14.74 20.1038C13.96 20.5598 13.054 20.7878 12.022 20.7878C10.99 20.7878 10.078 20.5537 9.286 20.0857C8.506 19.6297 7.906 18.9997 7.486 18.1957C7.066 17.4037 6.856 16.5157 6.856 15.5317ZM9.52 15.5317C9.52 16.1197 9.736 16.6177 10.168 17.0257C10.6 17.4457 11.218 17.6557 12.022 17.6557C12.826 17.6557 13.444 17.4517 13.876 17.0437C14.308 16.6477 14.524 16.1557 14.524 15.5677C14.524 14.9677 14.308 14.4697 13.876 14.0737C13.456 13.6777 12.838 13.4797 12.022 13.4797C11.218 13.4797 10.6 13.6717 10.168 14.0557C9.736 14.4517 9.52 14.9437 9.52 15.5317ZM20.32 25.4987L7 25.4987L7 22.4207L20.32 22.4207L20.32 25.4987ZM20.32 30.8073L7 30.8073L7 27.7293L20.32 27.7293L20.32 30.8073ZM6.856 37.6099C6.856 36.6259 7.066 35.7379 7.486 34.9459C7.906 34.1659 8.506 33.5479 9.286 33.0919C10.066 32.6479 10.978 32.4259 12.022 32.4259C13.054 32.4259 13.96 32.6539 14.74 33.1099C15.532 33.5659 16.138 34.1899 16.558 34.9819C16.978 35.7739 17.188 36.6619 17.188 37.6459C17.188 38.6299 16.978 39.5179 16.558 40.3099C16.138 41.1019 15.532 41.7259 14.74 42.1819C13.96 42.6379 13.054 42.8659 12.022 42.8659C10.99 42.8659 10.078 42.6319 9.286 42.1639C8.506 41.7079 7.906 41.0779 7.486 40.2739C7.066 39.4819 6.856 38.5939 6.856 37.6099ZM9.52 37.6099C9.52 38.1979 9.736 38.6959 10.168 39.1039C10.6 39.5239 11.218 39.7339 12.022 39.7339C12.826 39.7339 13.444 39.5299 13.876 39.1219C14.308 38.7259 14.524 38.2339 14.524 37.6459C14.524 37.0459 14.308 36.5479 13.876 36.1519C13.456 35.7559 12.838 35.5579 12.022 35.5579C11.218 35.5579 10.6 35.7499 10.168 36.1339C9.736 36.5299 9.52 37.0219 9.52 37.6099ZM17.044 58.9168L7 56.1988L7 52.7968L13.516 51.2128L7 49.5748L7 46.1908L17.044 43.4548L17.044 46.5328L9.862 47.9548L17.044 49.6468L17.044 52.9048L9.898 54.6148L17.044 56.0188L17.044 58.9168ZM17.044 73.8231L7 73.8231L7 70.7451L8.368 70.7451C7.924 70.4331 7.564 70.0071 7.288 69.4671C7.024 68.9391 6.892 68.3511 6.892 67.7031C6.892 66.9351 7.06 66.2571 7.396 65.6691C7.744 65.0811 8.242 64.6251 8.89 64.3011C9.538 63.9771 10.3 63.8151 11.176 63.8151L17.044 63.8151L17.044 66.8751L11.59 66.8751C10.918 66.8751 10.396 67.0491 10.024 67.3971C9.652 67.7451 9.466 68.2131 9.466 68.8011C9.466 69.4011 9.652 69.8751 10.024 70.2231C10.396 70.5711 10.918 70.7451 11.59 70.7451L17.044 70.7451L17.044 73.8231ZM6.856 80.12C6.856 79.244 7.006 78.464 7.306 77.78C7.606 77.096 8.014 76.556 8.53 76.16C9.058 75.764 9.646 75.542 10.294 75.494L10.294 78.536C9.946 78.572 9.664 78.734 9.448 79.022C9.232 79.31 9.124 79.664 9.124 80.084C9.124 80.468 9.196 80.762 9.34 80.966C9.496 81.182 9.694 81.29 9.934 81.29C10.222 81.29 10.432 81.14 10.564 80.84C10.708 80.54 10.864 80.054 11.032 79.382C11.2 78.662 11.374 78.062 11.554 77.582C11.746 77.102 12.04 76.688 12.436 76.34C12.844 75.992 13.39 75.818 14.074 75.818C14.65 75.818 15.172 75.974 15.64 76.286C16.12 76.61 16.498 77.078 16.774 77.69C17.05 78.314 17.188 79.052 17.188 79.904C17.188 81.164 16.876 82.154 16.252 82.874C15.628 83.606 14.8 84.026 13.768 84.134L13.768 81.29C14.116 81.242 14.392 81.086 14.596 80.822C14.8 80.57 14.902 80.234 14.902 79.814C14.902 79.454 14.83 79.178 14.686 78.986C14.554 78.794 14.368 78.698 14.128 78.698C13.84 78.698 13.624 78.848 13.48 79.148C13.336 79.46 13.192 79.94 13.048 80.588C12.856 81.332 12.664 81.938 12.472 82.406C12.292 82.874 11.992 83.282 11.572 83.63C11.164 83.99 10.612 84.176 9.916 84.188C9.328 84.188 8.8 84.02 8.332 83.684C7.876 83.36 7.516 82.886 7.252 82.262C6.988 81.65 6.856 80.936 6.856 80.12Z" fill="white" style="fill:white;fill-opacity:1;"/>
<path d="M10.8 103H19.2C22.4032 103 25 105.597 25 108.8V117.2C25 120.403 22.4032 123 19.2 123H10.8C7.59675 123 5 120.403 5 117.2V108.8C5 105.597 7.59675 103 10.8 103ZM10.6 105C8.61177 105 7 106.612 7 108.6V117.4C7 119.388 8.61177 121 10.6 121H19.4C21.3882 121 23 119.388 23 117.4V108.6C23 106.612 21.3882 105 19.4 105H10.6ZM20.25 106.5C20.9404 106.5 21.5 107.06 21.5 107.75C21.5 108.44 20.9404 109 20.25 109C19.5596 109 19 108.44 19 107.75C19 107.06 19.5596 106.5 20.25 106.5ZM15 108C17.7614 108 20 110.239 20 113C20 115.761 17.7614 118 15 118C12.2386 118 10 115.761 10 113C10 110.239 12.2386 108 15 108ZM15 110C13.3431 110 12 111.343 12 113C12 114.657 13.3431 116 15 116C16.6569 116 18 114.657 18 113C18 111.343 16.6569 110 15 110Z" fill="white" style="fill:white;fill-opacity:1;"/>
<path d="M25.4592 155.012C24.6896 155.354 23.8624 155.584 22.9944 155.688C23.8803 155.157 24.5609 154.316 24.8813 153.314C24.052 153.806 23.1336 154.163 22.156 154.355C21.3732 153.521 20.2579 153 19.0235 153C16.6534 153 14.7317 154.921 14.7317 157.292C14.7317 157.628 14.7697 157.955 14.8429 158.27C11.2761 158.091 8.11375 156.382 5.99709 153.786C5.62765 154.419 5.41601 155.157 5.41601 155.943C5.41601 157.432 6.17364 158.746 7.32523 159.515C6.62179 159.493 5.95996 159.3 5.38139 158.978C5.38098 158.996 5.38098 159.014 5.38098 159.032C5.38098 161.112 6.86033 162.846 8.82359 163.241C8.46349 163.339 8.08434 163.391 7.69294 163.391C7.4164 163.391 7.14755 163.364 6.88546 163.314C7.43161 165.019 9.01653 166.26 10.8945 166.295C9.42576 167.446 7.57527 168.132 5.56453 168.132C5.21812 168.132 4.87651 168.111 4.54077 168.072C6.44003 169.289 8.69591 170 11.1195 170C19.0134 170 23.3302 163.46 23.3302 157.789C23.3302 157.603 23.326 157.418 23.3177 157.234C24.1563 156.629 24.8839 155.873 25.4592 155.012Z" fill="white" style="fill:white;fill-opacity:1;"/>
</svg>
